<?xml version="1.0" encoding="utf-8"?>
<!-- Generator: Adobe Illustrator 19.1.0, SVG Export Plug-In . SVG Version: 6.00 Build 0)  -->
<svg version="1.1" id="Слой_1" xmlns="http://www.w3.org/2000/svg" xmlns:xlink="http://www.w3.org/1999/xlink" x="0px" y="0px"
	 viewBox="-280 335.8 49.3 97.8" style="enable-background:new -280 335.8 49.3 97.8;" xml:space="preserve">
<style type="text/css">
	.st0{fill:#816FCA;}
</style>
<path class="st0" d="M-279.5,430.6c-0.7,0.7-0.7,1.8,0,2.5c0.3,0.4,0.8,0.5,1.3,0.5c0.4,0,0.9-0.2,1.2-0.5l44.2-43.4
	c1.3-1.3,2.1-3.1,2.1-5s-0.7-3.7-2.1-5l-44.2-43.4c-0.7-0.7-1.8-0.7-2.5,0s-0.7,1.8,0,2.5l44.2,43.4c0.7,0.7,1,1.5,1,2.5
	c0,0.9-0.4,1.8-1,2.5L-279.5,430.6z"/>
</svg>
